simulation
nRows=24
nColumns=15
endheader
time  TH_x TH_y TH_z SC_y  SC_z  SC_x  AC_y  AC_z  AC_x  GH_y  GH_z  GH_yy  EL_x  PS_y
0.137135  0.000000  0.000000  0.000000  -52.508587  11.509474  19.439499  44.921297  5.983014  -8.400290  141.782697  14.609417  -140.896331  23.749747  0.000000
0.138950  0.000000  0.000000  0.000000  -52.452175  11.944414  19.945393  44.879348  5.936632  -8.326905  144.962789  14.937837  -144.030031  24.095182  0.000000
0.140764  0.000000  0.000000  0.000000  -52.401787  12.366860  20.451467  44.842353  5.902009  -8.262501  147.960660  15.311791  -146.950759  24.420874  0.000000
0.141732  0.000000  0.000000  0.000000  -52.377992  12.586815  20.720738  44.824302  5.887855  -8.231190  149.480986  15.527246  -148.417670  24.586936  0.000000
0.142036  0.000000  0.000000  0.000000  -52.371046  12.654905  20.804944  44.818773  5.883966  -8.221700  149.945983  15.596697  -148.864130  24.637897  0.000000
0.142339  0.000000  0.000000  0.000000  -52.364378  12.722596  20.889124  44.813154  5.880271  -8.212232  150.406135  15.666905  -149.304735  24.688373  0.000000
0.142642  0.000000  0.000000  0.000000  -52.358023  12.789875  20.973326  44.807294  5.876702  -8.202643  150.862024  15.737704  -149.739910  24.738384  0.000000
0.142946  0.000000  0.000000  0.000000  -52.352016  12.856729  21.057602  44.801051  5.873176  -8.192775  151.314288  15.808910  -150.170149  24.787954  0.000000
0.143249  0.000000  0.000000  0.000000  -52.346385  12.923150  21.141993  44.794336  5.869606  -8.182475  151.763501  15.880343  -150.595948  24.837107  0.000000
0.143658  0.000000  0.000000  0.000000  -52.339417  13.012110  21.256138  44.784527  5.864556  -8.167650  152.365789  15.976839  -151.164467  24.902844  0.000000
0.144068  0.000000  0.000000  0.000000  -52.333200  13.100257  21.370569  44.774004  5.859036  -8.151511  152.964065  16.073079  -151.726698  24.967937  0.000000
0.144477  0.000000  0.000000  0.000000  -52.327742  13.187588  21.485271  44.763106  5.852818  -8.133828  153.558716  16.168733  -152.283454  25.032449  0.000000
0.144887  0.000000  0.000000  0.000000  -52.323032  13.274109  21.600192  44.752304  5.845682  -8.114434  154.149796  16.263517  -152.835349  25.096437  0.000000
0.145296  0.000000  0.000000  0.000000  -52.319046  13.359831  21.715252  44.742112  5.837430  -8.093218  154.737105  16.357195  -153.382782  25.159947  0.000000
0.145835  0.000000  0.000000  0.000000  -52.314851  13.471479  21.866774  44.730411  5.824581  -8.062421  155.503909  16.478525  -154.096945  25.242874  0.000000
0.146374  0.000000  0.000000  0.000000  -52.311786  13.581793  22.018141  44.721388  5.809219  -8.028370  156.262546  16.597339  -154.803608  25.325050  0.000000
0.146913  0.000000  0.000000  0.000000  -52.309799  13.690798  22.169145  44.715359  5.791190  -7.991182  157.012081  16.713496  -155.502206  25.406453  0.000000
0.147452  0.000000  0.000000  0.000000  -52.308860  13.798509  22.319623  44.712093  5.770470  -7.951044  157.751894  16.826982  -156.191901  25.487027  0.000000
0.147991  0.000000  0.000000  0.000000  -52.308971  13.904926  22.469468  44.710947  5.747137  -7.908180  158.481736  16.937867  -156.871791  25.566695  0.000000
0.148530  0.000000  0.000000  0.000000  -52.310147  14.010043  22.618612  44.711105  5.721333  -7.862825  159.201613  17.046279  -157.541069  25.645380  0.000000
0.149152  0.000000  0.000000  0.000000  -52.312851  14.129670  22.789719  44.711958  5.688714  -7.807717  160.019722  17.168465  -158.299094  25.734847  0.000000
0.149773  0.000000  0.000000  0.000000  -52.317017  14.247540  22.959753  44.712812  5.653288  -7.749966  160.824629  17.287826  -159.041456  25.822863  0.000000
0.150395  0.000000  0.000000  0.000000  -52.322636  14.363648  23.128610  44.713460  5.615291  -7.689938  161.615901  17.404625  -159.767658  25.909399  0.000000
0.151017  0.000000  0.000000  0.000000  -52.329676  14.478002  23.296153  44.714178  5.574942  -7.628025  162.392648  17.519132  -160.477253  25.994449  0.000000
